PathFileType	4	(X/Y/Z)	D:\Share\Shared_Data\Ergonomics\Sit To Stand Pertubation\S2\Perturbed.trc
DataRate	CameraRate	NumFrames	NumMarkers	Units	OrigDataRate	OrigDataStartFrame	OrigNumFrames	
100	100	19	18	m	100	18632	191
Frame#	Time	R_Toe			R_ASIS			R_Pelvis			V_Sacral			L_Pelvis			L_ASIS			Clavical			R_Acromium			L_Acromium			Sternum			Torso			R_Thigh_Med			R_Thigh_Lat			R_Thigh			R_Shank_Med			R_Shank_Lat			R_Shank			R_Heel			
		X1	Y1	Z1	X2	Y2	Z2	X3	Y3	Z3	X4	Y4	Z4	X5	Y5	Z5	X6	Y6	Z6	X7	Y7	Z7	X8	Y8	Z8	X9	Y9	Z9	X10	Y10	Z10	X11	Y11	Z11	X12	Y12	Z12	X13	Y13	Z13	X14	Y14	Z14	X15	Y15	Z15	X16	Y16	Z16	X17	Y17	Z17	X18	Y18	Z18	

18632	186.31	0.4151171	0.075511024	0.1368376	0.10281719	0.72736401	0.12728932	0.037636681	0.76860547	0.172108	-0.11488288	0.7713587	0.016694641	0.0024023447	0.78071857	-0.16291095	0.088888168	0.74460022	-0.14585368	0.39007748	0.98030237	-0.011904834	0.3387012	1.071686	0.19045273	0.33853824	1.0784243	-0.19644409	0.3171087	0.83545551	-0.0090126305	0.37071118	0.95103131	-0.11853703	0.40618478	0.48537964	0.11376116	0.38030435	0.49889502	0.21621968	0.26950742	0.65723535	0.17317653	0.2815574	0.11179871	0.10223056	0.25953293	0.097109383	0.19508051	0.34504788	0.34916556	0.22841856	0.17769029	0.054371677	0.13527777
18633	186.32	0.41508218	0.075517555	0.13654359	0.10626434	0.73310608	0.12721875	0.041761173	0.77499146	0.17251526	-0.11107155	0.77907074	0.017311283	0.0056542535	0.78746301	-0.16264992	0.091780182	0.75034802	-0.145742	0.39238419	0.9888924	-0.012007554	0.34114658	1.0797047	0.19064204	0.33996857	1.0871157	-0.19625278	0.31986993	0.84383063	-0.009175477	0.3729404	0.95968799	-0.11864922	0.40697894	0.48504321	0.11254993	0.38162253	0.4989024	0.21493777	0.27333759	0.65897504	0.17252925	0.28147543	0.11173632	0.10217892	0.2595986	0.097075073	0.19509103	0.34567703	0.3493511	0.22767589	0.17767798	0.054469345	0.13536345
18634	186.33	0.41504684	0.075491768	0.13628961	0.10966455	0.73894336	0.12720039	0.04581028	0.78143134	0.17292662	-0.10730271	0.78680042	0.017925249	0.008852582	0.79425055	-0.16239592	0.094694489	0.75608594	-0.1454399	0.39453876	0.99763806	-0.012113839	0.34349396	1.0878778	0.19082587	0.3412977	1.0959756	-0.19607469	0.32258191	0.85234814	-0.0093529329	0.37500815	0.96849805	-0.11879213	0.40761108	0.48476468	0.11147392	0.38274365	0.498936	0.21376439	0.27703427	0.66070697	0.17197768	0.28140784	0.11167284	0.10212952	0.25965579	0.097045242	0.1950894	0.34619095	0.34955078	0.22701524	0.17767616	0.054575073	0.13544371
18635	186.34	0.4150141	0.07543116	0.13607855	0.11303471	0.74486749	0.12724972	0.049783813	0.78790582	0.17333835	-0.10357269	0.79452313	0.018527439	0.011996815	0.80105975	-0.16215234	0.097672638	0.76180096	-0.14488916	0.39655688	1.0065267	-0.012221224	0.34573953	1.0961836	0.19100673	0.34252899	1.1049735	-0.19591005	0.32525421	0.86099066	-0.0095401564	0.37693542	0.97743909	-0.11896934	0.4080867	0.48453845	0.11053659	0.38367728	0.49899359	0.21270697	0.28060507	0.66242462	0.1715345	0.28135645	0.11160888	0.1020816	0.25970505	0.097021027	0.19507681	0.34659225	0.34976315	0.22643855	0.17768384	0.054695801	0.13552292
18636	186.35	0.41498767	0.075336624	0.13591194	0.11639338	0.75086853	0.12737854	0.053682178	0.79439673	0.17374673	-0.099877701	0.80221997	0.019106245	0.015085188	0.80787231	-0.16192464	0.1007546	0.76750763	-0.14405234	0.3984581	1.0155441	-0.012328115	0.34787924	1.1046016	0.19118744	0.34366257	1.1140747	-0.19575548	0.32789166	0.86974207	-0.0097315607	0.3787543	0.98648663	-0.1191835	0.40842209	0.48436234	0.10973316	0.38443515	0.49907339	0.21176534	0.28405795	0.66412231	0.17120186	0.28132184	0.11154514	0.10203345	0.2597467	0.097003387	0.19505399	0.34688397	0.34998615	0.22594157	0.17769788	0.054838966	0.13560567
18637	186.36	0.41497089	0.075212646	0.13578918	0.119759	0.75693274	0.12759061	0.05750668	0.80088782	0.17414935	-0.096214981	0.80987543	0.019650496	0.018117239	0.81467212	-0.1617177	0.1039685	0.77326569	-0.1429417	0.40026199	1.0246747	-0.012433133	0.34990869	1.1131117	0.19137097	0.34469498	1.1232428	-0.19560535	0.33049594	0.87858624	-0.0099223728	0.38049823	0.99561768	-0.11943138	0.40863742	0.48423502	0.10905352	0.38503061	0.49917432	0.2109321	0.28740002	0.6657948	0.17097133	0.28130359	0.11148289	0.1019838	0.25978152	0.096992577	0.19502214	0.34707019	0.35021698	0.22551505	0.17771271	0.055011292	0.13569626
18638	186.37	0.41496429	0.075065971	0.13570685	0.12314658	0.76304138	0.12787622	0.061260281	0.80736383	0.17454509	-0.092583443	0.81747253	0.020153172	0.021096836	0.82144586	-0.16153294	0.10731773	0.77917224	-0.14163477	0.40198544	1.0339015	-0.012534319	0.35182394	1.121696	0.19155992	0.34562143	1.1324429	-0.19545309	0.33306812	0.88750696	-0.010109192	0.38219495	1.0048146	-0.11970263	0.40875137	0.48415488	0.10848412	0.38547787	0.49929654	0.21019429	0.29063815	0.66743707	0.17082748	0.2812998	0.111424	0.10193269	0.25981015	0.096988136	0.19498372	0.34715701	0.35045444	0.22514777	0.1777204	0.055216988	0.13579787
18639	186.38	0.41496524	0.074904701	0.13565883	0.12656334	0.76917389	0.12821333	0.064948151	0.81381061	0.17493353	-0.088982681	0.82499133	0.02061413	0.024034307	0.8281814	-0.16136865	0.11077264	0.78529779	-0.14024522	0.40364017	1.0432079	-0.012628456	0.35362222	1.1303375	0.19175546	0.3464386	1.1416472	-0.19529369	0.33560995	0.8964881	-0.010289323	0.38386502	1.0140645	-0.11998327	0.40877814	0.48411938	0.10800876	0.38579132	0.49944083	0.20953499	0.29377881	0.66904565	0.17075108	0.2813071	0.11137038	0.10188152	0.2598331	0.096988983	0.19494237	0.34715454	0.3507001	0.22482973	0.17771147	0.055455151	0.13591081
18640	186.39	0.41496866	0.074739563	0.1356376	0.13000555	0.77531616	0.12857619	0.068577652	0.8202146	0.17531427	-0.085411232	0.83241107	0.021038889	0.026945601	0.8348653	-0.16122435	0.1142724	0.79163751	-0.13889331	0.40523267	1.0525784	-0.012711427	0.3553024	1.1390208	0.19195683	0.3471456	1.1508387	-0.19512511	0.33812418	0.9055141	-0.010460214	0.38552106	1.023356	-0.12026033	0.40872507	0.4841239	0.1076078	0.38598489	0.49960779	0.20893425	0.29682837	0.67061713	0.17072165	0.28132068	0.11132322	0.10183263	0.25985049	0.096993538	0.19490204	0.34707584	0.35095782	0.22455289	0.17767851	0.055715717	0.13603091
18641	186.4	0.41496866	0.074585045	0.13563512	0.13346016	0.78146576	0.12894302	0.072157799	0.8265625	0.17568655	-0.08186573	0.83971429	0.021433439	0.029847538	0.84148285	-0.16110175	0.11774448	0.79814124	-0.13769894	0.40676437	1.0619973	-0.012779719	0.35686426	1.1477328	0.1921626	0.34774463	1.1600087	-0.19494748	0.34061343	0.91457086	-0.010619905	0.38716562	1.0326799	-0.1205245	0.40859235	0.48416183	0.10725754	0.3860715	0.49979715	0.20836986	0.29979318	0.67214844	0.17071947	0.28133414	0.11128281	0.10178845	0.25986166	0.096999847	0.19486638	0.3469339	0.3512308	0.22430821	0.17762135	0.055975136	0.13614864
18642	186.41	0.41495956	0.074457283	0.13564339	0.13691365	0.7876261	0.12929707	0.075698219	0.83284277	0.17604926	-0.078341293	0.84689087	0.021800463	0.032752651	0.84802002	-0.16100197	0.12113732	0.80475311	-0.1367504	0.40823334	1.0714501	-0.012831447	0.35830798	1.1564619	0.19237224	0.34824161	1.169156	-0.1947617	0.34307919	0.92364514	-0.010768037	0.38878906	1.0420259	-0.12077123	0.40837579	0.4842254	0.10693211	0.38606323	0.50000745	0.20781873	0.30267926	0.67363647	0.17072658	0.28134018	0.11124838	0.1017507	0.2598652	0.097005875	0.19483817	0.34673758	0.35151984	0.22408208	0.17755051	0.056196472	0.13625027
18643	186.42	0.41493762	0.074367867	0.13565543	0.14036292	0.79379803	0.12962534	0.079207771	0.83904669	0.17640128	-0.074832245	0.85393524	0.02214031	0.035667488	0.85446478	-0.16092377	0.12443696	0.8114176	-0.13607224	0.40963483	1.0809235	-0.012866075	0.35963385	1.1651991	0.19258655	0.34864661	1.1782833	-0.19456885	0.34552084	0.93272522	-0.010906255	0.39036523	1.051384	-0.12100016	0.40807162	0.48430801	0.10660769	0.38597144	0.50023688	0.20725954	0.30549207	0.6750788	0.17072795	0.28133301	0.11121846	0.10171975	0.25985989	0.097009895	0.19481868	0.34648959	0.35182352	0.22385728	0.17748338	0.056339001	0.13632137
18644	186.43	0.41490326	0.074317253	0.13566588	0.14381705	0.79997656	0.12991833	0.082693291	0.84517023	0.17674167	-0.071332611	0.86084363	0.022453138	0.038594269	0.86080933	-0.16086407	0.12765725	0.81808441	-0.13563916	0.41096219	1.0904047	-0.012883764	0.3608425	1.1739351	0.19280719	0.34897189	1.1873942	-0.19436974	0.34793488	0.94180133	-0.011037151	0.39185233	1.0607441	-0.12121357	0.40768091	0.48440591	0.10626541	0.38580615	0.50048383	0.20667505	0.30823672	0.67647498	0.17071201	0.28131055	0.11119099	0.10169444	0.25984616	0.09701107	0.19480692	0.34618842	0.35214062	0.22361824	0.17743575	0.056372887	0.13635092
18645	186.44	0.41486169	0.074292145	0.13567175	0.14728972	0.80615424	0.13017104	0.086159904	0.85121204	0.1770694	-0.067836365	0.86761304	0.02273908	0.041533852	0.86704944	-0.16081853	0.13082396	0.82471729	-0.1354052	0.41220856	1.0998833	-0.012885005	0.36193549	1.1826619	0.19303619	0.34922684	1.1964867	-0.19416429	0.35031564	0.95086536	-0.011162232	0.39321399	1.0700966	-0.12141415	0.40720892	0.48451831	0.10589249	0.38557544	0.50074762	0.20605289	0.31091739	0.67782666	0.17066992	0.28127652	0.1111636	0.10167201	0.25982663	0.097009758	0.19479921	0.34583316	0.35247211	0.22335518	0.17741617	0.056289124	0.13633406
18646	186.45	0.41482098	0.074268219	0.13567249	0.15079169	0.81232446	0.13038271	0.089612358	0.85717249	0.17738245	-0.064337936	0.8742428	0.022998728	0.044488361	0.87318518	-0.16078195	0.13396432	0.83129474	-0.13532147	0.41336752	1.1093499	-0.012870468	0.36291541	1.1913711	0.19327528	0.34941653	1.2055538	-0.19395203	0.35265921	0.95991113	-0.011280912	0.39445062	1.0794333	-0.12160319	0.4066619	0.48464694	0.10548195	0.38528525	0.50102921	0.20538483	0.31353702	0.6791358	0.17059337	0.28123911	0.11113386	0.10164854	0.25980591	0.097007652	0.19478964	0.34542706	0.35282056	0.22306386	0.17742451	0.056105228	0.13627499
18647	186.46	0.41478903	0.074216705	0.13566968	0.15432828	0.81848193	0.13055597	0.093056305	0.86305298	0.17767821	-0.06083226	0.88073676	0.023235962	0.04746217	0.87921985	-0.16074864	0.13710165	0.83780725	-0.13534546	0.4144346	1.1187946	-0.012841049	0.36378482	1.2000547	0.19352522	0.34954385	1.214583	-0.19373384	0.35496454	0.96893268	-0.011391507	0.39560095	1.0887469	-0.1217803	0.40604614	0.4847948	0.10503054	0.38493918	0.50133072	0.20466676	0.31609689	0.68040375	0.17047324	0.28120847	0.11109953	0.10161973	0.25978918	0.097007484	0.19477132	0.34497751	0.35318839	0.2227428	0.17745238	0.055867401	0.13618967
18648	186.47	0.41477219	0.074111366	0.13566557	0.15790047	0.82462225	0.13069547	0.096498558	0.8688576	0.17795424	-0.057314957	0.88710657	0.023459616	0.050460274	0.88516071	-0.16071284	0.14025296	0.84425403	-0.13544432	0.41540836	1.1282073	-0.01279783	0.36454666	1.2087054	0.19378569	0.34961078	1.2235605	-0.19351294	0.35723166	0.9779234	-0.011492769	0.39671317	1.0980288	-0.12194411	0.40536716	0.48496515	0.10453576	0.38453824	0.50165445	0.20389844	0.31859659	0.68163098	0.17029922	0.28119379	0.11105864	0.1015813	0.25978149	0.097012367	0.19473801	0.34449252	0.35357654	0.2223914	0.17748813	0.055635437	0.13610088
18649	186.48	0.41477487	0.073934082	0.1356609	0.16150771	0.83074255	0.13080623	0.099946266	0.87459558	0.17820793	-0.053783218	0.89337189	0.02367827	0.053485191	0.89101746	-0.1606711	0.14342932	0.85063965	-0.13559424	0.41629053	1.1375785	-0.012741741	0.36520435	1.2173171	0.19405573	0.34961838	1.2324742	-0.19329402	0.3594599	0.98687573	-0.011584067	0.39782211	1.107269	-0.12209277	0.40462555	0.48515961	0.10399432	0.38408109	0.5020007	0.20308147	0.32103433	0.68281696	0.17006003	0.28120132	0.11100952	0.10152951	0.25978702	0.097025368	0.1946852	0.3439787	0.35398474	0.22200896	0.17752455	0.055454033	0.13602628
18650	186.49	0.41479871	0.073679649	0.13565385	0.16515001	0.83684155	0.13089276	0.10340609	0.88027948	0.1784353	-0.050236576	0.89955548	0.023893242	0.056534824	0.89680078	-0.16062729	0.1466371	0.85697186	-0.13577844	0.41708649	1.1469005	-0.012672872	0.36576212	1.2258843	0.19433392	0.34956793	1.2413138	-0.19308092	0.36164893	0.99578235	-0.011664307	0.39894427	1.1164586	-0.12222401	0.40381644	0.48537836	0.10340281	0.38356473	0.50236798	0.20221671	0.32340805	0.68396082	0.16974512	0.2812326	0.11095137	0.10146164	0.25980887	0.097048721	0.19461159	0.34344031	0.35441156	0.22159389	0.17756033	0.055338394	0.13597237
